<svg xmlns="http://www.w3.org/2000/svg" xmlns:xlink="http://www.w3.org/1999/xlink" width="74" height="79" viewBox="0 0 74 79">
  <defs>
    <polygon id="1brand-logo-brandmark-a" points=".079 .097 53.844 .097 53.844 65.534 .079 65.534"/>
    <polygon id="1brand-logo-brandmark-c" points="0 .294 73.71 .294 73.71 73.944 0 73.944"/>
  </defs>
  <g fill="none" fill-rule="evenodd">
    <g transform="translate(7)">
      <mask id="1brand-logo-brandmark-b" fill="#fff">
        <use xlink:href="#1brand-logo-brandmark-a"/>
      </mask>
      <path fill="#7820FA" d="M45.2012523,41.3233266 C45.2012523,49.9723541 38.0732523,57.0052899 29.3080705,57.0052899 C20.542275,57.0052899 13.4148886,49.9723541 13.4148886,41.3233266 C13.4148886,41.1543908 13.4596841,40.9969596 13.4652068,40.8292349 L13.4062977,40.8292349 L13.4062977,12.7398771 L13.0798432,12.7398771 L10.3927295,12.7398771 L11.1315477,8.62547339 L13.0798432,8.62547339 L17.5839341,8.62547339 L17.5839341,40.8292349 L17.5839341,41.2149413 L17.599275,41.2149413 C17.599275,41.2518771 17.5882295,41.2857853 17.5882295,41.3233266 C17.5882295,47.6986844 22.8464795,52.8830147 29.3080705,52.8830147 C35.7690477,52.8830147 41.0272977,47.6986844 41.0272977,41.3233266 C41.0272977,34.9503908 35.7733432,29.764244 29.3148205,29.7600055 L29.3148205,38.2891431 C31.0084568,38.2933817 32.3842295,39.6515284 32.3842295,41.3233266 C32.3842295,42.9933083 31.0041614,44.3550881 29.3080705,44.3550881 C27.6113659,44.3550881 26.2312977,42.9933083 26.2312977,41.3233266 C26.2312977,41.237345 26.2736386,41.1658954 26.2810023,41.0823358 L26.2423432,41.0823358 L26.2423432,30.2111064 C26.2380477,30.2123174 26.232525,30.2147394 26.2270023,30.2159505 L26.2270023,25.9441156 C26.232525,25.9429046 26.2380477,25.9441156 26.2423432,25.9429046 L26.2423432,17.3174917 C26.2380477,17.3180972 26.232525,17.3193083 26.2270023,17.3199138 L26.2270023,11.7765193 C26.2337523,11.7831798 26.2355932,11.7922624 26.2423432,11.7989229 L26.2423432,5.79352844 C26.2355932,5.80018899 26.2337523,5.80987706 26.2270023,5.81593211 L26.2270023,0.0969412844 L18.3018886,0.0969412844 L8.04250227,0.0969412844 L3.890025,0.0969412844 L0.0793431818,21.2684092 L4.76384318,21.2684092 L4.76384318,41.1774 L4.77918409,41.1774 C4.77918409,41.2270514 4.77182045,41.2742807 4.77182045,41.3233266 C4.77182045,54.6740972 15.7780023,65.533822 29.3080705,65.533822 C42.837525,65.533822 53.8437068,54.6740972 53.8437068,41.3233266 C53.8437068,27.974978 42.8418205,17.1128312 29.3148205,17.1085927 L29.3148205,25.6377303 C38.0775477,25.6419688 45.2012523,32.6767211 45.2012523,41.3233266" mask="url(#1brand-logo-brandmark-b)"/>
    </g>
    <g transform="translate(0 5)">
      <mask id="1brand-logo-brandmark-d" fill="#fff">
        <use xlink:href="#1brand-logo-brandmark-c"/>
      </mask>
      <path fill="#7820FA" d="M36.8620689,0.29413819 L36.8620689,8.83099457 C52.4687902,8.83523724 65.1670689,21.5250606 65.1670689,37.1211123 C65.1670689,52.7183762 52.4651508,65.4069874 36.8547902,65.4069874 C23.6688393,65.4069874 12.3389541,56.4658653 9.30616721,43.668763 C8.79726557,41.5310638 8.54311803,39.325482 8.54311803,37.1211123 C8.54311803,35.7701253 8.63956066,34.4112589 8.83062623,33.086334 C9.01441311,31.7856529 9.29403607,30.4886083 9.66100328,29.2345965 C10.3160852,26.9714356 9.01016721,24.6034201 6.74528197,23.9445942 C4.46765902,23.302739 2.10633115,24.5997835 1.45185574,26.8587018 C0.980560656,28.4921294 0.617232787,30.1807117 0.371577049,31.8771733 C0.125314754,33.6027274 0.000363934426,35.3658595 0.000363934426,37.1211123 C0.000363934426,39.9885506 0.333363934,42.8481096 0.992691803,45.6325127 C4.9432,62.3019597 19.6934623,73.9438438 36.8547902,73.9438438 C57.1781016,73.9438438 73.709823,57.4247085 73.709823,37.1211123 C73.709823,16.8150918 57.1823475,0.298380859 36.8620689,0.29413819" mask="url(#1brand-logo-brandmark-d)"/>
    </g>
  </g>
</svg>
